<?xml version="1.0" encoding="iso-8859-1"?>
<!-- Uploaded to: SVG Repo, www.svgrepo.com, Generator: SVG Repo Mixer Tools -->
<svg fill="#000000" version="1.1" id="Layer_1" xmlns="http://www.w3.org/2000/svg" xmlns:xlink="http://www.w3.org/1999/xlink" 
	 viewBox="0 0 496 496" xml:space="preserve">
<g>
	<g>
		<g>
			<path d="M76.688,144L0,220.688V496h496V144H76.688z M72,171.312V216H27.312L72,171.312z M480,480H16V232h72v-72h392V480z"/>
			<path d="M40,128h345.736l105.6-48l-105.6-48H56V16h96V0H40v32C17.944,32,0,49.944,0,72v16C0,110.056,17.944,128,40,128z M88,48
				h294.264l52.8,24h-44.536c-3.312-9.288-12.112-16-22.528-16c-13.232,0-24,10.768-24,24s10.768,24,24,24
				c10.416,0,19.216-6.712,22.528-16h44.536l-52.8,24H88V48z M376,80c0,4.416-3.584,8-8,8c-4.416,0-8-3.584-8-8s3.584-8,8-8
				C372.416,72,376,75.584,376,80z M56,48h16v64H56V48z M16,72c0-13.232,10.768-24,24-24v64c-13.232,0-24-10.768-24-24V72z"/>
			<path d="M200,347.312l48-48l48,48l66.056-66.064c8.992-8.984,13.944-20.936,13.944-33.656c0-26.24-21.352-47.592-47.6-47.592
				c-12.128,0-23.552,4.504-32.4,12.728c-12.704-11.816-31.44-15.608-47.864-10C243.2,200.992,237.92,200,232.4,200
				c-12.128,0-23.56,4.504-32.4,12.736C191.16,204.504,179.728,200,167.6,200c-26.248,0-47.6,21.352-47.6,47.6
				c0,12.712,4.952,24.664,13.944,33.656L200,347.312z M268.352,216.496c6.552,1.008,12.792,3.96,17.584,8.752L296,235.32
				l10.056-10.072c5.968-5.96,13.904-9.248,22.344-9.248c17.424,0,31.6,14.168,31.6,31.592c0,8.448-3.288,16.376-9.256,22.344
				L296,324.688L259.312,288l6.744-6.744C275.048,272.264,280,260.312,280,247.6C280,235.704,275.584,224.848,268.352,216.496z
				 M167.6,216c8.44,0,16.376,3.288,22.344,9.256L200,235.312l10.056-10.056C216.024,219.288,223.96,216,232.4,216
				c17.424,0,31.6,14.176,31.6,31.6c0,8.44-3.288,16.376-9.256,22.344L200,324.688l-54.744-54.744
				C139.288,263.976,136,256.04,136,247.6C136,230.176,150.176,216,167.6,216z"/>
			<rect x="48" y="368" width="400" height="16"/>
			<rect x="48" y="400" width="400" height="16"/>
			<rect x="432" y="432" width="16" height="16"/>
			<rect x="48" y="432" width="368" height="16"/>
		</g>
	</g>
</g>
</svg>